<?xml version="1.0" encoding="UTF-8"?>
<svg width="24px" height="24px" viewBox="0 0 24 24" version="1.1" xmlns="http://www.w3.org/2000/svg" xmlns:xlink="http://www.w3.org/1999/xlink">
    <!-- Generator: Sketch 51.3 (57544) - http://www.bohemiancoding.com/sketch -->
    <title>github-logo</title>
    <desc>Created with Sketch.</desc>
    <defs></defs>
    <g id="DESIGN" stroke="none" stroke-width="1" fill="none" fill-rule="evenodd">
        <g id="Dashboard-Option-1" transform="translate(-371.000000, -414.000000)" fill="#666A95" fill-rule="nonzero">
            <g id="github-logo" transform="translate(371.000000, 414.000000)">
                <path d="M12.0213876,11.9200616 C12.0146658,11.9200616 12.0070274,11.9197469 12,11.9194322 C11.9926671,11.9197469 11.9850287,11.9200616 11.9783069,11.9200616 C10.1582219,11.9200616 8.55445733,11.445467 7.60668102,12.3417837 C7.03868742,12.8796366 6.79945182,13.5276408 6.79945182,14.2253704 C6.79945182,17.139973 9.06653762,17.4978073 11.9780013,17.4978073 L12.0213876,17.4978073 C14.9328513,17.4978073 17.1999371,17.1396583 17.1999371,14.2253704 C17.1999371,13.5273261 16.9607015,12.8796366 16.3927079,12.3417837 C15.4449316,11.445467 13.8414725,11.9200616 12.0213876,11.9200616 Z M9.54592544,15.9028169 C8.99198655,15.9028169 8.54284691,15.2620512 8.54284691,14.4717945 C8.54284691,13.6815378 8.99198655,13.0410869 9.54592544,13.0410869 C10.0998643,13.0410869 10.5496151,13.6815378 10.5496151,14.4717945 C10.5496151,15.2620512 10.0998643,15.9028169 9.54592544,15.9028169 Z M14.453769,15.9028169 C13.8995246,15.9028169 13.4500794,15.2620512 13.4500794,14.4717945 C13.4500794,13.6815378 13.8995246,13.0410869 14.453769,13.0410869 C15.0074024,13.0410869 15.4568475,13.6815378 15.4568475,14.4717945 C15.4568475,15.2620512 15.0077079,15.9028169 14.453769,15.9028169 Z M12,0 C5.37225,0 0,5.3725 0,12 C0,18.6275 5.37225,24 12,24 C18.62725,24 24,18.6275 24,12 C24,5.3725 18.62725,0 12,0 Z M13.3376417,18.2002577 C13.0748798,18.2002577 12.5524112,18.2008871 12,18.2015166 C11.4472833,18.2008871 10.9245092,18.2002577 10.6620527,18.2002577 C9.50009487,18.2002577 4.89870508,18.1086748 4.89870508,12.3952857 C4.89870508,11.080709 5.33623431,10.118931 6.0521079,9.31797391 C5.937837,9.02748927 5.93203179,7.37773795 6.54157845,5.79848344 C6.54157845,5.79848344 7.93971654,5.95647184 10.0552559,7.45169666 C10.4985903,7.32549478 11.2492952,7.26255119 12,7.26255119 C12.7500938,7.26255119 13.5007986,7.32518006 13.9447441,7.45169666 C16.0599779,5.95647184 17.4578105,5.79848344 17.4578105,5.79848344 C18.0673571,7.37773795 18.0618575,9.02748927 17.9475866,9.31797391 C18.6637657,10.118931 19.1012949,11.0810237 19.1012949,12.3952857 C19.1012949,18.1086748 14.4995996,18.2002577 13.3376417,18.2002577 Z" id="Shape"></path>
            </g>
        </g>
    </g>
</svg>