<?xml version="1.0" encoding="UTF-8"?>
<svg width="14px" height="14px" viewBox="0 0 14 14" version="1.1" xmlns="http://www.w3.org/2000/svg" xmlns:xlink="http://www.w3.org/1999/xlink">
    <!-- Generator: Sketch 51.3 (57544) - http://www.bohemiancoding.com/sketch -->
    <title>Group 7</title>
    <desc>Created with Sketch.</desc>
    <defs></defs>
    <g id="DESIGN" stroke="none" stroke-width="1" fill="none" fill-rule="evenodd">
        <g id="Dashboard-Option-1" transform="translate(-533.000000, -419.000000)" fill="#666A95">
            <g id="Group-18" transform="translate(528.000000, 414.000000)">
                <g id="Group-7" transform="translate(5.000000, 5.000000)">
                    <g id="Group-2">
                        <path d="M2.5638852,-7.69717846e-16 L11.4361148,-1.18460574e-16 C12.3276335,-2.8222991e-16 12.6509198,0.0928256111 12.9768457,0.267132704 C13.3027716,0.441439796 13.5585602,0.697228371 13.7328673,1.0231543 C13.9071744,1.34908022 14,1.67236646 14,2.5638852 L14,11.4361148 C14,12.3276335 13.9071744,12.6509198 13.7328673,12.9768457 C13.5585602,13.3027716 13.3027716,13.5585602 12.9768457,13.7328673 C12.6509198,13.9071744 12.3276335,14 11.4361148,14 L2.5638852,14 C1.67236646,14 1.34908022,13.9071744 1.0231543,13.7328673 C0.697228371,13.5585602 0.441439796,13.3027716 0.267132704,12.9768457 C0.0928256111,12.6509198 -3.35013239e-16,12.3276335 -1.2360205e-15,11.4361148 L-1.52988584e-16,2.5638852 C-2.62168142e-16,1.67236646 0.0928256111,1.34908022 0.267132704,1.0231543 C0.441439796,0.697228371 0.697228371,0.441439796 1.0231543,0.267132704 C1.34908022,0.0928256111 1.67236646,-6.0594851e-16 2.5638852,-7.69717846e-16 Z M2.24569421,7.3441626 L2.24569421,8.06061731 L5.47676451,9.30387698 L5.47676451,8.453965 L4.24052891,8.04656918 L3.29228002,7.71643809 L3.29228002,7.68834182 L4.24052891,7.35821073 L5.47676451,6.95081491 L5.47676451,6.10090293 L2.24569421,7.3441626 Z M7.21873285,5.04729305 L5.80689561,11.1582304 L6.48120593,11.1582304 L7.89304317,5.04729305 L7.21873285,5.04729305 Z M11.5666296,8.06061731 L11.5666296,7.3441626 L8.33555932,6.10090293 L8.33555932,6.95081491 L9.57179492,7.35821073 L10.5200438,7.68834182 L10.5200438,7.71643809 L9.57179492,8.04656918 L8.33555932,8.453965 L8.33555932,9.30387698 L11.5666296,8.06061731 Z" id="Combined-Shape"></path>
                    </g>
                </g>
            </g>
        </g>
    </g>
</svg>