<?xml version="1.0" encoding="UTF-8"?>
<svg width="140px" height="40px" viewBox="0 0 140 40" version="1.1" xmlns="http://www.w3.org/2000/svg" xmlns:xlink="http://www.w3.org/1999/xlink">
    <!-- Generator: Sketch 51.3 (57544) - http://www.bohemiancoding.com/sketch -->
    <title>Group 23</title>
    <desc>Created with Sketch.</desc>
    <defs></defs>
    <g id="DESIGN" stroke="none" stroke-width="1" fill="none" fill-rule="evenodd">
        <g id="Dashboard-Option-1" transform="translate(-10.000000, -10.000000)" fill="#427EFF">
            <g id="Group-23" transform="translate(10.000000, 10.000000)">
                <path d="M19.0254066,14.4929667 L14.2805506,19.242997 C14.0423223,19.4814851 14.0423223,19.8681508 14.2805506,20.1066389 L23.9859378,29.8226099 C24.2241661,30.0610981 24.2241661,30.4477637 23.9859378,30.6862518 L22.0448603,32.629446 C20.7346046,33.9411307 18.6102602,33.9411307 17.3000044,32.629446 L6.94759138,22.2657436 C5.63733559,20.9540589 5.63733559,18.8273979 6.94759138,17.5157133 L17.3000044,7.15201085 C18.6102602,5.84032621 20.7346046,5.84032621 22.0448603,7.15201085 L27.6524174,12.765683 C27.8906457,13.0041711 27.8906457,13.3908368 27.6524174,13.6293249 L23.7702625,17.5157133 C23.5320342,17.7542014 23.1457898,17.7542014 22.9075614,17.5157133 L19.8881076,14.4929667 C19.6498793,14.2544786 19.2636349,14.2544786 19.0254066,14.4929667 Z" id="Combined-Shape-Copy-3"></path>
                <path d="M24.0932308,22.3080533 L27.7597104,25.9785312 C27.9979387,26.2170193 27.9979387,26.603685 27.7597104,26.8421731 L22.0443157,32.5638005 C20.793617,33.8158631 18.7658337,33.8158631 17.515135,32.5638005 C16.2644363,31.3117379 16.2644363,29.2817433 17.515135,28.0296807 L23.2305297,22.3080533 C23.468758,22.0695652 23.8550024,22.0695652 24.0932308,22.3080533 Z" id="Path-Copy-5" fill-opacity="0.5"></path>
                <path d="M30.4551066,16.7920316 L30.4551066,16.7920316 C32.2238617,16.7920316 33.657721,18.2258909 33.657721,19.9946459 L33.657721,20.0016309 C33.657721,21.770386 32.2238617,23.2042453 30.4551066,23.2042453 L30.4551066,23.2042453 C28.6863515,23.2042453 27.2524922,21.770386 27.2524922,20.0016309 L27.2524922,19.9946459 C27.2524922,18.2258909 28.6863515,16.7920316 30.4551066,16.7920316 Z" id="Path-Copy-6" transform="translate(30.455107, 19.998138) rotate(45.000000) translate(-30.455107, -19.998138) "></path>
                <path d="M25.8761792,6.36395496 C23.8476704,4.33323404 22.898379,3.69053492 21.6382967,3.30819199 C20.5781295,2.9865087 19.5068157,2.9865087 18.4466485,3.30819199 C17.1865662,3.69053492 16.2372748,4.33323404 14.208766,6.36395496 L6.46540483,14.1157604 C4.43689603,16.1464813 3.79489701,17.0968079 3.41297057,18.3582644 C3.0916377,19.4195877 3.0916377,20.4920698 3.41297057,21.5533931 C3.79489701,22.8148495 4.43689603,23.7651761 6.46540483,25.795897 L14.208766,33.5477025 C16.2372748,35.5784234 17.1865662,36.2211225 18.4466485,36.6034655 C19.5068157,36.9251487 20.5781295,36.9251487 21.6382967,36.6034655 C22.898379,36.2211225 23.8476704,35.5784234 25.8761792,33.5477025 L33.6195404,25.795897 C35.6480492,23.7651761 36.2900482,22.8148495 36.6719747,21.5533931 C36.9933076,20.4920698 36.9933076,19.4195877 36.6719747,18.3582644 C36.2900482,17.0968079 35.6480492,16.1464813 33.6195404,14.1157604 L25.8761792,6.36395496 Z M28.0329319,4.20485028 L35.7762931,11.9566557 C38.1303955,14.3133253 39.0438019,15.6654058 39.5909498,17.4725687 C40.0871278,19.111384 40.0871278,20.8002735 39.5909498,22.4390888 C39.0438019,24.2462516 38.1303955,25.5983322 35.7762931,27.9550017 L28.0329319,35.7068072 C25.6788296,38.0634767 24.3282219,38.9778792 22.5230276,39.5256238 C20.8859975,40.0223428 19.1989478,40.0223428 17.5619177,39.5256238 C15.7567234,38.9778792 14.4061157,38.0634767 12.0520133,35.7068072 L4.30865212,27.9550017 C1.95454977,25.5983322 1.04114336,24.2462516 0.493995453,22.4390888 C-0.00218249989,20.8002735 -0.00218249989,19.111384 0.493995453,17.4725687 C1.04114336,15.6654058 1.95454977,14.3133253 4.30865212,11.9566557 L12.0520133,4.20485028 C14.4061157,1.84818076 15.7567234,0.933778266 17.5619177,0.386033685 C19.1989478,-0.110685356 20.8859975,-0.110685356 22.5230276,0.386033685 C24.3282219,0.933778266 25.6788296,1.84818076 28.0329319,4.20485028 Z" id="Rectangle-4-Copy-3" fill-rule="nonzero"></path>
                <g id="Group-8-Copy-3" transform="translate(48.191721, 10.883866)">
                    <path d="M1.68458836,15.5665937 L0.360554652,15.5665937 C0.262104331,15.581444 0.1626818,15.5471536 0.0923366753,15.4740864 C0.0219915504,15.4010192 -0.0110213973,15.2977494 0.00327571494,15.1954894 L0.00327571494,1.90122431 C-0.0110213973,1.79896433 0.0219915504,1.69569453 0.0923366753,1.62262731 C0.1626818,1.5495601 0.262104331,1.51526967 0.360554652,1.53012003 L6.95970679,1.53012003 C7.05815711,1.51526967 7.15757964,1.5495601 7.22792476,1.62262731 C7.29826989,1.69569453 7.33128284,1.79896433 7.31698572,1.90122431 L7.31698572,3.01453715 C7.33128284,3.11679712 7.29826989,3.22006693 7.22792476,3.29313415 C7.15757964,3.36620136 7.05815711,3.40049178 6.95970679,3.38564143 L2.30807513,3.38564143 C2.13994387,3.38564143 2.05587824,3.45840697 2.05587824,3.60393806 L2.05587824,7.72974447 C2.05587824,7.88982866 2.13994387,7.96987076 2.30807513,7.96987076 L6.36424189,7.96987076 C6.61643879,7.96987076 6.74253724,8.09357219 6.74253724,8.34097504 L6.74253724,9.43245822 C6.75660379,9.54049356 6.72129794,9.64915503 6.64708184,9.72624301 C6.57286575,9.80333098 6.46825241,9.84000304 6.36424189,9.82539216 L2.30807513,9.82539216 C2.13994387,9.82539216 2.05587824,9.89815771 2.05587824,10.0436888 L2.05587824,15.1954894 C2.07139616,15.3007135 2.03670061,15.4072058 1.96285231,15.4810172 C1.88900401,15.5548286 1.78522089,15.5867457 1.68458836,15.5665937 Z" id="Shape" fill-rule="nonzero"></path>
                    <path d="M11.1656033,15.5690684 L9.82138809,15.5690684 C9.72143714,15.5841291 9.62049916,15.549353 9.54908181,15.4752509 C9.47766445,15.4011489 9.4441483,15.2964164 9.45866334,15.1927081 L9.45866334,4.65462011 C9.4441483,4.55091181 9.47766445,4.44617938 9.54908181,4.3720773 C9.62049916,4.29797522 9.72143714,4.26319914 9.82138809,4.27825982 L11.1656033,4.27825982 C11.2655543,4.26319914 11.3664923,4.29797522 11.4379096,4.3720773 C11.509327,4.44617938 11.5428431,4.55091181 11.5283281,4.65462011 L11.5283281,5.49589604 L11.6136751,5.49589604 C11.7732855,5.10473954 12.0673367,4.78911353 12.4386961,4.61034243 C12.8557847,4.38552387 13.3200588,4.27143061 13.7900236,4.27825982 L14.5794834,4.27825982 C14.6794343,4.26319914 14.7803723,4.29797522 14.8517897,4.3720773 C14.923207,4.44617938 14.9567232,4.55091181 14.9422081,4.65462011 L14.9422081,5.80583981 C14.9422081,6.08626512 14.8212999,6.20433894 14.5794834,6.16006126 L13.2992784,6.16006126 C12.1186449,6.16006126 11.5283281,6.83160608 11.5283281,8.17469573 L11.5283281,15.1927081 C11.5428431,15.2964164 11.509327,15.4011489 11.4379096,15.4752509 C11.3664923,15.549353 11.2655543,15.5841291 11.1656033,15.5690684 Z" id="Shape" fill-rule="nonzero"></path>
                    <path d="M29.7808961,15.5396651 L28.4369299,15.5396651 C28.3342819,15.5546732 28.2306203,15.5200185 28.1572758,15.4461752 C28.0839314,15.3723319 28.0495109,15.2679651 28.0644176,15.1646189 L28.0644176,4.66332681 C28.0495109,4.55998063 28.0839314,4.4556139 28.1572758,4.38177056 C28.2306203,4.30792723 28.3342819,4.27327257 28.4369299,4.28828067 L29.817417,4.28828067 C29.9200649,4.27327257 30.0237266,4.30792723 30.0970711,4.38177056 C30.1704155,4.4556139 30.204836,4.55998063 30.1899293,4.66332681 L30.1899293,5.45754219 L30.2775793,5.45754219 C30.7592761,4.64529814 31.6658802,4.1889128 32.6003035,4.28828067 L33.3307199,4.28828067 C34.4437587,4.20338354 35.5043345,4.777464 36.047869,5.75904987 C36.279447,5.29071336 36.6564087,4.91118767 37.1215811,4.67803451 C37.602418,4.42817922 38.1362776,4.29948423 38.6773681,4.30298836 L39.4077845,4.30298836 C40.3093111,4.23935973 41.1955118,4.56259221 41.8473754,5.19280373 C42.4478496,5.89185315 42.7520588,6.80012697 42.6946584,7.72252676 L42.6946584,15.1793266 C42.7095651,15.2826728 42.6751446,15.3870395 42.6018001,15.4608829 C42.5284557,15.5347262 42.424794,15.5693809 42.322146,15.5543728 L40.854009,15.5543728 C40.7513611,15.5693809 40.6476994,15.5347262 40.574355,15.4608829 C40.5010105,15.3870395 40.46659,15.2826728 40.4814967,15.1793266 L40.4814967,7.82548061 C40.5491566,7.38306342 40.4066478,6.93432437 40.0965991,6.61349577 C39.7865505,6.29266717 39.3449139,6.13695093 38.9037972,6.19292679 L38.2683349,6.19292679 C37.0558437,6.19292679 36.449598,6.83271139 36.449598,8.1122806 L36.449598,15.1940343 C36.449598,15.4440651 36.3181231,15.5690805 36.0551732,15.5690805 L34.6746861,15.5690805 C34.5720382,15.5840886 34.4683765,15.5494339 34.3950321,15.4755906 C34.3216876,15.4017472 34.2872671,15.2973805 34.3021738,15.1940343 L34.3021738,7.8401883 C34.3698337,7.39777111 34.2273249,6.94903206 33.9172762,6.62820346 C33.6072276,6.30737487 33.165591,6.15165862 32.7244743,6.20763448 L31.9575371,6.20763448 C30.7596541,6.20763448 30.1607127,6.83271139 30.1607127,8.08286522 L30.1607127,15.208742 C30.1618922,15.3062013 30.1203383,15.399228 30.0471351,15.4630078 C29.9739318,15.5267877 29.8765247,15.5548338 29.7808961,15.5396651 Z" id="Shape" fill-rule="nonzero"></path>
                    <path d="M49.1645086,14.7261791 L48.1644097,14.7261791 C47.2538415,14.7831155 46.3607367,14.4653797 45.7049072,13.8511732 C45.0982962,13.1712667 44.7922846,12.2876253 44.852971,11.3911155 L44.852971,7.62572109 C44.7566964,6.71581523 45.0885664,5.8122838 45.7566122,5.16551629 C46.4246579,4.51874878 47.357915,4.19744934 48.2977562,4.29065748 L53.2760265,4.29065748 C53.5427195,4.29065748 53.6760661,4.41258453 53.6760661,4.65643865 L53.6760661,15.3071257 C53.731134,16.2092835 53.3955938,17.0928831 52.7500485,17.7456668 C52.0588573,18.3559714 51.1430752,18.6713265 50.2090564,18.6206727 L46.0308653,18.6206727 C45.7789886,18.6206727 45.6530502,18.5059179 45.6530502,18.2764081 L45.6530502,17.1575481 C45.6379313,17.0567549 45.6728418,16.9549664 45.7472303,16.8829473 C45.8216188,16.8109281 45.9267561,16.7771295 46.0308653,16.7917669 L49.8756901,16.7917669 C50.3224074,16.8359606 50.7657231,16.6816301 51.0810774,16.3721379 C51.3964318,16.0626457 51.5497938,15.6313904 51.4980728,15.199543 L51.4980728,13.564286 L51.4091751,13.564286 C50.986808,14.3691291 50.0904067,14.8331278 49.1645086,14.7261791 Z M51.4980728,11.0683674 L51.4980728,6.33472872 C51.4980728,6.19128513 51.4165833,6.11956333 51.2536042,6.11956333 L48.6088981,6.11956333 C47.5569422,6.11956333 47.0309643,6.65030463 47.0309643,7.71178725 L47.0309643,11.2978772 C47.0309643,12.3593598 47.5569422,12.8901011 48.6088981,12.8901011 L49.6756703,12.8901011 C50.1876558,12.9559024 50.701554,12.782864 51.0608692,12.4236808 C51.4201843,12.0644975 51.5823836,11.5616865 51.4980728,11.0683674 Z" id="Shape" fill-rule="nonzero"></path>
                    <path d="M56.4311856,2.32988935 L56.4311856,0.351523244 C56.4141019,0.255432454 56.450111,0.157926577 56.5280806,0.0891496558 C56.6060502,0.0203727346 56.7165886,-0.0113908474 56.8255229,0.00367865378 L58.4685948,0.00367865378 C58.577529,-0.0113908474 58.6880675,0.0203727346 58.7660371,0.0891496558 C58.8440067,0.157926577 58.8800157,0.255432454 58.8629321,0.351523244 L58.8629321,2.32988935 C58.8629321,2.57627927 58.7314863,2.69947422 58.4685948,2.69947422 L56.8255229,2.69947422 C56.5626313,2.69947422 56.4311856,2.57627927 56.4311856,2.32988935 Z M56.4311856,14.8957752 L56.4311856,4.54739861 C56.4311856,4.30100869 56.5626313,4.17781373 56.8255229,4.17781373 L58.3864412,4.17781373 C58.5018945,4.16302418 58.618488,4.19717421 58.7009822,4.26994226 C58.7834764,4.34271032 58.8221909,4.44555731 58.8054245,4.54739861 L58.8054245,14.8957752 C58.8184816,14.9990406 58.786137,15.1027902 58.7150556,15.1856456 C58.6294861,15.2463206 58.5203366,15.2749446 58.4110873,15.26536 L56.8337382,15.26536 C56.7209477,15.2752063 56.6092696,15.2388696 56.5307436,15.1667746 C56.4522176,15.0946796 56.4155224,14.9947944 56.4311856,14.8957752 Z" id="Shape" fill-rule="nonzero"></path>
                    <path d="M80.9186888,15.5564766 C79.9834808,15.6508268 79.0548245,15.3255905 78.390072,14.6708983 C77.7253196,14.016206 77.3950856,13.1016038 77.4908856,12.180549 L77.4908856,4.92048969 C77.3894154,3.99810831 77.7178059,3.0801262 78.3839258,2.42408721 C79.0500457,1.76804822 79.9821338,1.44462749 80.9186888,1.5445621 L83.4840124,1.5445621 C84.4192204,1.4502119 85.3478767,1.77544818 86.0126292,2.43014042 C86.6773816,3.08483266 87.0076156,3.99943491 86.9118156,4.92048969 L86.9118156,5.96593823 C86.9266173,6.07372866 86.8894662,6.18214381 86.8113711,6.25905704 C86.733276,6.33597026 86.6231949,6.37255919 86.5137481,6.35798143 L85.120512,6.35798143 C84.8698769,6.35798143 84.7445594,6.22730036 84.7445594,5.96593823 L84.7445594,5.0076104 C84.8128442,4.57083554 84.6690192,4.12781945 84.3561072,3.81108252 C84.0431952,3.49434558 83.5974801,3.34061526 83.1522895,3.39587723 L81.2282968,3.39587723 C80.7831063,3.34061526 80.3373911,3.49434558 80.0244791,3.81108252 C79.7115671,4.12781945 79.5677422,4.57083554 79.636027,5.0076104 L79.636027,12.0861682 C79.5677422,12.5229431 79.7115671,12.9659592 80.0244791,13.2826961 C80.3373911,13.599433 80.7831063,13.7531634 81.2282968,13.6979014 L83.1522895,13.6979014 C83.5974801,13.7531634 84.0431952,13.599433 84.3561072,13.2826961 C84.6690192,12.9659592 84.8128442,12.5229431 84.7445594,12.0861682 L84.7445594,11.1060602 C84.7445594,10.8446981 84.8698769,10.714017 85.120512,10.714017 L86.5137481,10.714017 C86.6231949,10.6994393 86.733276,10.7360282 86.8113711,10.8129414 C86.8894662,10.8898546 86.9266173,10.9982698 86.9118156,11.1060602 L86.9118156,12.1515088 C86.9993218,13.0705851 86.6663951,13.9802579 86.0036289,14.632994 C85.3408627,15.28573 84.4172116,15.6136183 83.4840124,15.5274363 L80.9186888,15.5564766 Z" id="Shape" fill-opacity="0.5" fill-rule="nonzero"></path>
                    <path d="M91.8043436,1.90129159 L91.8043436,15.197945 C91.8215194,15.3002234 91.7818595,15.4035118 91.6973508,15.4765921 C91.6128422,15.5496724 91.4934016,15.583969 91.3751289,15.569116 L89.8013417,15.569116 C89.683069,15.583969 89.5636284,15.5496724 89.4791198,15.4765921 C89.3946111,15.4035118 89.3549512,15.3002234 89.372127,15.197945 L89.372127,1.90129159 C89.3549512,1.79901324 89.3946111,1.69572488 89.4791198,1.62264454 C89.5636284,1.5495642 89.683069,1.51526762 89.8013417,1.53012064 L91.3919609,1.53012064 C91.5075057,1.52023212 91.6219109,1.55672479 91.7023545,1.62912915 C91.782798,1.70153351 91.8203893,1.80184744 91.8043436,1.90129159 Z" id="Shape" fill-opacity="0.5" fill-rule="nonzero"></path>
                    <rect id="Rectangle-2" x="72.5925926" y="12.8244275" width="2.44008715" height="2.7480916" rx="1"></rect>
                    <path d="M24.448358,5.17368938 C23.7565964,4.54404488 22.8353471,4.22189633 21.8981483,4.28191514 L18.0170711,4.28191514 C17.8117589,4.28191514 17.6453204,4.44689899 17.6453204,4.65041689 L17.6453204,5.79277233 C17.6453204,5.99629023 17.8117589,6.16127408 18.0170711,6.16127408 L21.5858777,6.16127408 C22.0348967,6.105175 22.4844449,6.26123404 22.8000479,6.58276892 C23.1156509,6.9043038 23.2607127,7.35403073 23.1918406,7.79742187 L23.1918406,8.31332433 L18.1509013,8.31332433 C17.22289,8.31332433 16.4705882,9.05905135 16.4705882,9.97895226 L16.4705882,13.8924409 C16.4705882,14.8123418 17.22289,15.5580688 18.1509013,15.5580688 L20.7977662,15.5580688 C21.7141844,15.6622135 22.6007353,15.196448 23.0282703,14.3862332 L23.1174905,14.3862332 L23.1174905,15.182197 C23.1023168,15.2857707 23.1373539,15.3903672 23.2120123,15.4643731 C23.2866707,15.538379 23.3921893,15.57311 23.4966762,15.5580688 L24.9018938,15.5580688 C25.1695543,15.5580688 25.3033845,15.4327782 25.3033845,15.182197 L25.3033845,7.73846159 C25.3837386,6.8036594 25.0748032,5.87696412 24.448358,5.17368938 Z M23.1695356,11.806721 C23.1695356,13.0596269 22.5598645,13.6860799 21.3405222,13.6860799 L19.3256335,13.6860799 C18.9683902,13.6860799 18.6787873,13.399008 18.6787873,13.0448869 L18.6787873,10.8338763 C18.6787873,10.4797552 18.9683902,10.1926833 19.3256335,10.1926833 L22.9241801,10.1926833 C23.0877504,10.1926833 23.1695356,10.2663836 23.1695356,10.4137843 L23.1695356,11.806721 Z" id="Shape" fill-rule="nonzero"></path>
                    <path d="M68.9770216,5.17368938 C68.2829264,4.54404488 67.3585692,4.22189633 66.4182086,4.28191514 L62.5240383,4.28191514 C62.3180334,4.28191514 62.1510335,4.44689899 62.1510335,4.65041689 L62.1510335,5.79277233 C62.1510335,5.99629023 62.3180334,6.16127408 62.5240383,6.16127408 L66.1048845,6.16127408 C66.5554184,6.105175 67.0064832,6.26123404 67.3231509,6.58276892 C67.6398186,6.9043038 67.7853697,7.35403073 67.7162654,7.79742187 L67.7162654,8.31332433 L62.6881604,8.31332433 C61.7570184,8.31332433 61.0021786,9.05905135 61.0021786,9.97895226 L61.0021786,13.8924409 C61.0021786,14.8123418 61.7570184,15.5580688 62.6881604,15.5580688 L65.3141143,15.5580688 C66.2336241,15.6622135 67.1231659,15.196448 67.5521432,14.3862332 L67.6416644,14.3862332 L67.6416644,15.182197 C67.6264395,15.2857707 67.6615948,15.3903672 67.7365051,15.4643731 C67.8114153,15.538379 67.91729,15.57311 68.0221293,15.5580688 L69.4320875,15.5580688 C69.700651,15.5580688 69.8349327,15.4327782 69.8349327,15.182197 L69.8349327,7.73846159 C69.9155579,6.8036594 69.6055802,5.87696412 68.9770216,5.17368938 Z M67.6938851,11.806721 C67.6938851,13.0596269 67.0821572,13.6860799 65.8587014,13.6860799 L63.8220951,13.6860799 C63.4636466,13.6860799 63.1730667,13.399008 63.1730667,13.0448869 L63.1730667,10.8338763 C63.1730667,10.4797552 63.4636466,10.1926833 63.8220951,10.1926833 L67.4327817,10.1926833 C67.5969038,10.1926833 67.6789649,10.2663836 67.6789649,10.4137843 L67.6938851,11.806721 Z" id="Shape" fill-rule="nonzero"></path>
                </g>
            </g>
        </g>
    </g>
</svg>