<?xml version="1.0" encoding="UTF-8"?>
<svg width="14px" height="12px" viewBox="0 0 14 12" version="1.1" xmlns="http://www.w3.org/2000/svg" xmlns:xlink="http://www.w3.org/1999/xlink">
    <!-- Generator: Sketch 51.3 (57544) - http://www.bohemiancoding.com/sketch -->
    <title>sign-out-option</title>
    <desc>Created with Sketch.</desc>
    <defs></defs>
    <g id="DESIGN" stroke="none" stroke-width="1" fill="none" fill-rule="evenodd">
        <g id="Dashboard-Option-1" transform="translate(-1248.000000, -84.000000)" fill="#666A95" fill-rule="nonzero">
            <g id="Group-4" transform="translate(1228.000000, 59.000000)">
                <g id="sign-out-option" transform="translate(20.000000, 25.000000)">
                    <path d="M5.73182134,10.5748713 C5.73182134,10.5987717 5.73473861,10.6582725 5.74073001,10.7536239 C5.74675277,10.8488814 5.74819573,10.927684 5.74524708,10.9902192 C5.7422357,11.0525042 5.73323292,11.1227352 5.71830148,11.2000361 C5.70330731,11.2775248 5.67350717,11.3355553 5.62880696,11.3743152 C5.58394991,11.4128562 5.52287531,11.4323144 5.44523811,11.4323144 L2.57924902,11.4323144 C1.86881373,11.4323144 1.26126733,11.1807344 0.756703933,10.6773553 C0.252266013,10.1744141 0,9.56845722 0,8.85995373 L0,2.57220427 C0,1.86363821 0.252266013,1.2578377 0.756703933,0.754708876 C1.26126733,0.251580053 1.86881373,0 2.57924902,0 L5.44514401,0 C5.52274984,0 5.58987857,0.0283113589 5.64662431,0.084746377 C5.70330731,0.141431661 5.73169586,0.208284008 5.73169586,0.285678817 C5.73169586,0.309610518 5.73467588,0.36914258 5.74060453,0.464368852 C5.7466273,0.559626408 5.74807025,0.63858538 5.74512161,0.701058069 C5.74211023,0.763593324 5.73310745,0.833480148 5.71817601,0.910874957 C5.70318183,0.988269766 5.6733817,1.0463628 5.62868149,1.0850602 C5.58379307,1.12385146 5.52274984,1.14305938 5.44511264,1.14305938 L2.57924902,1.14305938 C2.18519709,1.14305938 1.84782815,1.28305201 1.56717359,1.56294343 C1.28655039,1.84280355 1.14630153,2.17912998 1.14630153,2.57211042 L1.14630153,8.85998501 C1.14630153,9.25290288 1.28658176,9.58926059 1.56717359,9.86912072 C1.84782815,10.1491685 2.18519709,10.2889735 2.57924902,10.2889735 L5.15856078,10.2889735 L5.25705808,10.2889735 L5.37343546,10.2889735 C5.37343546,10.2889735 5.40772131,10.292008 5.47641847,10.2979831 C5.545147,10.3038643 5.57943284,10.3128426 5.57943284,10.3247303 C5.57943284,10.3364928 5.60330432,10.352979 5.65114138,10.3737511 C5.69897845,10.3945232 5.71983854,10.4214894 5.71378441,10.454024 C5.70769891,10.4867776 5.71387852,10.5272581 5.73182134,10.5748713 Z M13.8302659,5.31568217 C13.9434324,5.4284161 14,5.56206361 14,5.71628188 C14,5.87056248 13.9434324,6.00389831 13.8302659,6.11672574 L8.97092817,10.9574587 C8.85782427,11.0701927 8.72378911,11.1266376 8.56897912,11.1266376 C8.41410656,11.1266376 8.2800714,11.0701927 8.16690492,10.9574587 C8.05373845,10.8448183 7.99720214,10.7111708 7.99720214,10.5570461 L7.99720214,7.99427388 L3.99532648,7.99427388 C3.8404852,7.99427388 3.70657519,7.93764199 3.59328357,7.82512624 C3.48011709,7.71245465 3.42358079,7.57893181 3.42358079,7.42471354 L3.42358079,4.00760087 C3.42358079,3.85335144 3.48011709,3.71982859 3.59328357,3.60709467 C3.70645004,3.49451658 3.84039134,3.43804053 3.99532648,3.43804053 L7.99717086,3.43804053 L7.99717086,0.875237192 C7.99717086,0.721081264 8.05370716,0.587464915 8.16687364,0.474730991 C8.2800714,0.362152905 8.41410656,0.305676856 8.56894783,0.305676856 C8.72378911,0.305676856 8.85782427,0.362152905 8.97089688,0.474730991 L13.8302659,5.31568217 Z" id="Combined-Shape"></path>
                </g>
            </g>
        </g>
    </g>
</svg>