<?xml version="1.0" encoding="UTF-8"?>
<svg width="20px" height="28px" viewBox="0 0 20 28" version="1.1" xmlns="http://www.w3.org/2000/svg" xmlns:xlink="http://www.w3.org/1999/xlink">
    <!-- Generator: Sketch 51.3 (57544) - http://www.bohemiancoding.com/sketch -->
    <title>if_git-branch_298785</title>
    <desc>Created with Sketch.</desc>
    <defs></defs>
    <g id="DESIGN" stroke="none" stroke-width="1" fill="none" fill-rule="evenodd">
        <g id="Dashboard-Option-1" transform="translate(-371.000000, -367.000000)" fill="#666A95" fill-rule="nonzero">
            <g id="if_git-branch_298785" transform="translate(371.000000, 367.000000)">
                <path d="M15.9764254,3.99410636 C13.7726461,3.99410636 11.9823191,5.78346601 11.9823191,7.98821272 C11.9823191,9.46163231 12.7897214,10.7360955 13.9793723,11.4294162 L13.9793723,11.9823191 C13.9793723,11.9823191 13.9793723,15.9764254 9.9852659,15.9764254 C8.32952159,15.9764254 7.03162425,16.3313704 5.99115954,16.8754738 L5.99115954,7.43530982 C7.18177768,6.74198913 7.98821272,5.46752595 7.98821272,3.99410636 C7.98821272,1.78935965 6.19885307,0 3.99410636,0 C1.78935965,0 0,1.78935965 0,3.99410636 C0,5.46752595 0.806435037,6.74198913 1.99705318,7.43530982 L1.99705318,20.524402 C0.806435037,21.2167554 0,22.4902512 0,23.9646382 C0,26.1684175 1.78935965,27.9587445 3.99410636,27.9587445 C6.19885307,27.9587445 7.98821272,26.1684175 7.98821272,23.9646382 C7.98821272,22.9193056 7.57669495,21.975386 6.91947723,21.2615955 C7.50065091,20.547805 8.4455379,19.9705318 9.9852659,19.9705318 C17.9110707,19.9705318 17.9734786,11.9823191 17.9734786,11.9823191 L17.9734786,11.4294162 C19.1631294,10.7360955 19.9705318,9.46163231 19.9705318,7.98821272 C19.9705318,5.78346601 18.1802048,3.99410636 15.9764254,3.99410636 Z M3.99410636,1.99705318 C5.09891362,1.99705318 5.99115954,2.8892991 5.99115954,3.99410636 C5.99115954,5.09891362 5.09891362,5.99115954 3.99410636,5.99115954 C2.8892991,5.99115954 1.99705318,5.09891362 1.99705318,3.99410636 C1.99705318,2.8892991 2.8892991,1.99705318 3.99410636,1.99705318 Z M3.99410636,25.9616913 C2.8892991,25.9616913 1.99705318,25.0684781 1.99705318,23.9646382 C1.99705318,22.8627641 2.8892991,21.967585 3.99410636,21.967585 C5.09891362,21.967585 5.99115954,22.8627641 5.99115954,23.9646382 C5.99115954,25.0684781 5.09891362,25.9616913 3.99410636,25.9616913 Z M15.9764254,9.9852659 C14.8725855,9.9852659 13.9793723,9.09301998 13.9793723,7.98821272 C13.9793723,6.88340546 14.8725855,5.99115954 15.9764254,5.99115954 C17.0802654,5.99115954 17.9734786,6.88340546 17.9734786,7.98821272 C17.9734786,9.09301998 17.0802654,9.9852659 15.9764254,9.9852659 Z" id="Shape"></path>
            </g>
        </g>
    </g>
</svg>