<?xml version="1.0" encoding="UTF-8"?>
<svg width="14px" height="14px" viewBox="0 0 14 14" version="1.1" xmlns="http://www.w3.org/2000/svg" xmlns:xlink="http://www.w3.org/1999/xlink">
    <!-- Generator: Sketch 51.3 (57544) - http://www.bohemiancoding.com/sketch -->
    <title>pie-chart (1)</title>
    <desc>Created with Sketch.</desc>
    <defs></defs>
    <g id="DESIGN" stroke="none" stroke-width="1" fill="none" fill-rule="evenodd">
        <g id="Dashboard-Option-1" transform="translate(-657.000000, -419.000000)" fill="#666A95" fill-rule="nonzero">
            <g id="Group-18-Copy" transform="translate(650.000000, 414.000000)">
                <g id="pie-chart-(1)" transform="translate(7.000000, 5.000000)">
                    <path d="M6.09714286,10.52 L6.09714286,13.8828571 C2.65714286,13.44 0,10.5028571 0,6.94285714 C0,6.18857143 0.122857143,5.46 0.342857143,4.78 L3.38285714,6.22285714 C3.33714286,6.45714286 3.31142857,6.69714286 3.31142857,6.94285714 C3.31142857,8.66857143 4.49714286,10.1171429 6.09714286,10.52 Z M7.90285714,3.36571429 L7.90285714,0.00285714286 C11.3428571,0.445714286 14,3.38285714 14,6.94285714 C14,10.5028571 11.3428571,13.44 7.90285714,13.8828571 L7.90285714,10.52 C9.50285714,10.1171429 10.6885714,8.66857143 10.6885714,6.94285714 C10.6885714,5.21714286 9.50285714,3.76857143 7.90285714,3.36571429 Z M4.15714286,4.59142857 L1.12,3.14857143 C2.21142857,1.46 4.00857143,0.271428571 6.09714286,0.00285714286 L6.09714286,3.36571429 C5.32571429,3.56 4.64857143,3.99714286 4.15714286,4.59142857 Z" id="Combined-Shape"></path>
                </g>
            </g>
        </g>
    </g>
</svg>