<?xml version="1.0" encoding="UTF-8"?>
<svg width="14px" height="18px" viewBox="0 0 14 18" version="1.1" xmlns="http://www.w3.org/2000/svg" xmlns:xlink="http://www.w3.org/1999/xlink">
    <!-- Generator: Sketch 51.3 (57544) - http://www.bohemiancoding.com/sketch -->
    <title>file</title>
    <desc>Created with Sketch.</desc>
    <defs></defs>
    <g id="DESIGN" stroke="none" stroke-width="1" fill="none" fill-rule="evenodd">
        <g id="Dashboard_Violations-Detail" transform="translate(-401.000000, -578.000000)" fill="#666A95" fill-rule="nonzero">
            <g id="file" transform="translate(401.000000, 578.000000)">
                <path d="M11.0945372,4.33328245 L13.4397631,4.33328245 L9.85738745,0.585708609 L9.85738745,3.10473633 C9.85738745,3.78575135 10.4066042,4.33328245 11.0945372,4.33328245 Z" id="Shape"></path>
                <path d="M9.09313996,3.10473633 L9.09313996,0 L1.7563366,0 C0.805710791,0 0.0176322418,0.780990609 0.0176322418,1.72856141 L0.0176322418,16.2714386 C0.0176322418,17.2191467 0.805710791,18 1.7563366,18 L12.2265822,18 C13.1770702,18 13.9651488,17.2190094 13.9651488,16.2714386 L13.9651488,5.09518434 L11.0943994,5.09518434 C9.98632321,5.09518434 9.09313996,4.20474241 9.09313996,3.10473633 Z M5.85941436,12.471405 L7.19684744,6.13806152 C7.23982603,5.93330382 7.44521411,5.79995726 7.65060218,5.84280394 C7.85599026,5.88565062 7.98974731,6.09054567 7.94676873,6.29530334 L6.60933564,12.6285095 C6.57104063,12.8095093 6.41345247,12.9333801 6.23671679,12.9333801 C6.21288572,12.9333801 6.18423333,12.9285736 6.15558094,12.9237671 C5.94537154,12.8762512 5.81161444,12.6761627 5.85941436,12.471405 Z M2.3438484,9.35719298 C2.3438484,9.24760438 2.39164828,9.13815309 2.47760546,9.06674196 L4.62226465,7.24287414 C4.78467414,7.10472108 5.02339815,7.1238098 5.16197653,7.28572082 C5.30055495,7.44763184 5.28140743,7.68576052 5.11899794,7.82377625 L3.31348396,9.35719298 L5.11899794,10.8904724 C5.28140743,11.0286255 5.30055495,11.2666168 5.16197653,11.4285278 C5.08552426,11.5190277 4.98041956,11.5618744 4.87063131,11.5618744 C4.78467414,11.5618744 4.69389563,11.5333099 4.62226465,11.4713745 L2.47760546,9.64764404 C2.39164828,9.57623291 2.3438484,9.4714508 2.3438484,9.35719298 Z M10.9224851,15.4761658 L3.06029597,15.4761658 C2.85008657,15.4761658 2.67817221,15.3047791 2.67817221,15.0952148 C2.67817221,14.8856506 2.85008657,14.7142639 3.06029597,14.7142639 L10.9273064,14.7142639 C11.1375157,14.7142639 11.3094301,14.8856506 11.3094301,15.0952148 C11.3094301,15.3047791 11.1375157,15.4761658 10.9224851,15.4761658 Z M11.6390704,9.35719298 C11.6390704,9.4666443 11.5912704,9.57623291 11.5053133,9.64764404 L9.36065412,11.4713745 C9.28902313,11.5333099 9.20292821,11.5618744 9.11228749,11.5618744 C9.00236146,11.5618744 8.89725676,11.5143585 8.82080445,11.4285278 C8.68236381,11.2666168 8.70137359,11.0286255 8.86378304,10.8904724 L10.6694348,9.35719298 L8.86378304,7.82377625 C8.70137359,7.68576052 8.68236381,7.44763184 8.82080445,7.28572082 C8.95938287,7.1238098 9.19824466,7.10472108 9.36065412,7.24287414 L11.5053133,9.06674196 C11.5912704,9.14282227 11.6390704,9.24760438 11.6390704,9.35719298 Z" id="Shape"></path>
            </g>
        </g>
    </g>
</svg>